<?xml version="1.0" encoding="utf-8"?>
<!-- Generator: Adobe Illustrator 16.0.0, SVG Export Plug-In . SVG Version: 6.00 Build 0)  -->
<!DOCTYPE svg PUBLIC "-//W3C//DTD SVG 1.1//EN" "http://www.w3.org/Graphics/SVG/1.1/DTD/svg11.dtd">
<svg version="1.1" id="Capa_1" xmlns="http://www.w3.org/2000/svg" xmlns:xlink="http://www.w3.org/1999/xlink" x="0px" y="0px"
	 width="380.719px" height="380.719px" viewBox="0 0 380.719 380.719" enable-background="new 0 0 380.719 380.719"
	 xml:space="preserve">
<g>
	<g>
		<path d="M236.437,188.578c-11.375,11.821-26.439,19.104-43.016,19.104c-17.01,0-32.455-7.659-43.921-20.031
			c-43.859,14.127-51.64,48.768-51.64,61.84c0,16.603,0,37,0,37h186.262c0,0,0-10.125,0-27.514
			C284.122,245.258,279.261,204.97,236.437,188.578z"/>
		<path d="M144.46,84.22v44.074c0,2.854,1.88,5.219,4.45,6.084c0,0.153-0.026,0.28-0.026,0.424c0,23.007,12.14,42.557,29.132,50.093
			c0.132,0.071,0.275,0.123,0.411,0.193c1.342,0.56,2.711,1.076,4.118,1.495c0.289,0.087,0.564,0.183,0.853,0.263
			c1.29,0.35,2.597,0.62,3.912,0.848c0.367,0.061,0.735,0.148,1.098,0.193c1.647,0.218,3.313,0.358,5.014,0.358
			c1.684,0,3.332-0.131,4.967-0.349c0.35-0.045,0.682-0.132,1.005-0.184c1.338-0.219,2.668-0.49,3.961-0.848
			c0.246-0.07,0.482-0.157,0.718-0.219c1.433-0.42,2.833-0.927,4.195-1.504c0.089-0.035,0.175-0.079,0.264-0.123
			c17.153-7.432,29.428-27.078,29.428-50.216c0-0.065,0-0.126,0-0.188c3.148-0.451,5.613-3.047,5.613-6.321V80.863
			c7.853-3.943,14.462-9.369,18.404-16.787c8.123-15.265,8.753-30.05,1.793-41.634c-6.941-11.549-20.494-18.164-37.203-18.164
			c-11.941,0-22.634,5.237-31.396,11.873c-7.816-8.66-22.92-16.555-39.047-16.135c-10.417,0.271-25.185,4.127-36.437,20.996
			c-5.801,8.673-7.576,17.857-5.29,27.278C118.729,66.096,136.84,79.329,144.46,84.22z M130.501,28.225
			c6.544-9.81,15.274-14.924,25.929-15.191c11.619-0.271,23.34,5.517,28.971,11.729c-8.87,8.979-14.234,17.665-14.689,18.426
			c-1.854,3.06-0.879,7.051,2.189,8.922c3.073,1.863,7.073,0.896,8.944-2.181c0.197-0.324,20.197-32.634,44.712-32.634
			c12.023,0,21.509,4.314,26.037,11.842c4.512,7.501,3.751,17.735-2.133,28.821c-10.78,20.288-56.803,21.111-73.638,19.711
			c-3.571-0.31-6.732,2.374-7.017,5.955c-0.307,3.585,2.352,6.732,5.937,7.029c0.722,0.062,5.63,0.446,12.817,0.446
			c10.963,0,27.208-0.909,41.984-5.22v35.903h-73.058V80.555c0-2.374-1.29-4.546-3.357-5.705
			c-0.236-0.114-23.056-13.005-27.086-29.669C125.64,39.381,126.768,33.829,130.501,28.225z"/>
	</g>
</g>
<text transform="matrix(1 0 0 1 7.8232 350.8652)" font-family="'Roboto'" font-size="54">WANNA COOK?</text>
</svg>
