<?xml version="1.0" encoding="utf-8"?>
<!-- Generator: Adobe Illustrator 16.0.0, SVG Export Plug-In . SVG Version: 6.00 Build 0)  -->
<!DOCTYPE svg PUBLIC "-//W3C//DTD SVG 1.1//EN" "http://www.w3.org/Graphics/SVG/1.1/DTD/svg11.dtd">
<svg version="1.1" id="Capa_1" xmlns="http://www.w3.org/2000/svg" xmlns:xlink="http://www.w3.org/1999/xlink" x="0px" y="0px"
	 width="380.721px" height="380.721px" viewBox="0 0 380.721 380.721" enable-background="new 0 0 380.721 380.721"
	 xml:space="preserve">
<g>
	<g>
		<path d="M192.8,23.168c-68.908,0-124.761,55.853-124.761,124.762c0,49.65,29.078,92.394,71.062,112.474l3.905-75.455
			c0,0-7.346-2.411-8.954-3.196c-15.579-6.862-26.896-27.069-26.896-53.293c0-28.617,22.193-53.267,43.65-53.47
			c0.027,0,0.027,0,0.045,0c0.009,0,0.027,0,0.035,0c21.462,0.203,43.656,24.852,43.656,53.47c0,26.225-11.332,46.423-26.88,53.293
			c-0.121,0.054-9.024,3.286-9.024,3.286l4.361,83.898c9.57,2.355,19.52,3.737,29.817,3.737c13.887,0,27.187-2.365,39.664-6.546
			l3.865-74.769c-10.185-2.239-18.87-8.724-24.314-16.857c-6.745-10.103,5.191-99.521,5.191-99.521h7.765v83.911h7.711V74.99h8.434
			v83.92h7.674V74.99h8.75v83.92h7.701V74.99h5.959c0,0,11.937,89.418,5.184,99.521c-5.392,8.055-13.996,14.519-24.053,16.813
			c-0.181,0.063-0.344,0.126-0.344,0.126l3.358,64.313c37.164-21.606,62.21-61.749,62.21-107.833
			C317.553,79.021,261.699,23.168,192.8,23.168z"/>
		<path d="M125.417,115.773c0.446-1.819,1.047-3.548,1.074-3.58c0.194-0.681-0.167-1.377-0.907-1.819
			c-0.705-0.379-1.562-0.185-1.959,0.424c0,0-0.853,1.359-2.09,3.368c-1.006,1.729-2.496,4.492-3.513,7.932
			c-0.88,3.015-1.932,7.024-2.406,11.511c-0.203,2.357-0.249,4.483-0.176,6.672c0.176,2.496,0.555,4.631,1.277,7.074
			c2.451,6.966,4.339,13.712,11.15,20.365c2.154,2.212,4.366,3.72,5.964,4.83l0.564,0.397c0.344,0.227,0.673,0.435,0.998,0.624
			c1.341,0.704,2.238,0.956,2.401,0.992c0.668,0.181,1.355-0.144,1.639-0.686c0.267-0.568,0.072-1.282-0.482-1.732
			c0,0-0.777-0.677-1.774-1.941c-0.682-0.768-1.422-1.879-2.284-3.132c-0.609-0.885-1.328-1.888-1.995-2.863
			c-3.319-5.065-5.232-12.135-7.878-19.377c-0.519-1.571-0.943-3.607-1.102-5.336c-0.211-1.996-0.311-3.918-0.311-5.702
			c-0.078-4.144,0.108-7.702,0.469-10.586C124.491,119.954,124.816,117.512,125.417,115.773z"/>
		<path d="M192.8,0C111.237,0,44.861,66.362,44.861,147.93c0,81.55,66.376,147.931,147.939,147.931
			c81.559,0,147.922-66.381,147.922-147.931C340.721,66.362,274.359,0,192.8,0z M192.8,284.828
			c-75.492,0-136.911-61.415-136.911-136.898c0-75.491,61.419-136.91,136.911-136.91c75.482,0,136.906,61.419,136.906,136.91
			C329.706,223.413,268.281,284.828,192.8,284.828z"/>
	</g>
</g>
<text transform="matrix(1 0 0 1 24.8235 358.8652)" font-family="sans-serif" font-size="55">WANNA EAT?</text>
</svg>
