<?xml version="1.0" encoding="utf-8"?>
<!-- Generator: Adobe Illustrator 16.0.0, SVG Export Plug-In . SVG Version: 6.00 Build 0)  -->
<!DOCTYPE svg PUBLIC "-//W3C//DTD SVG 1.1//EN" "http://www.w3.org/Graphics/SVG/1.1/DTD/svg11.dtd">
<svg version="1.1" id="Capa_1" xmlns="http://www.w3.org/2000/svg" xmlns:xlink="http://www.w3.org/1999/xlink" x="0px" y="0px"
	 width="512px" height="512px" viewBox="0 0 512 512" enable-background="new 0 0 512 512" xml:space="preserve">
<g>
	<path d="M251.25,421.5C367.644,421.5,462,327.144,462,210.75C462,94.356,367.644,0,251.25,0C134.856,0,40.5,94.356,40.5,210.75
		C40.5,327.144,134.856,421.5,251.25,421.5z M251.25,39.516c94.57,0,171.234,76.665,171.234,171.234
		c0,94.57-76.664,171.234-171.234,171.234c-94.57,0-171.234-76.664-171.234-171.234C80.016,116.18,156.68,39.516,251.25,39.516z
		 M251.25,246.462c47.728,0,93.121-12.681,131.719-34.955c-5.999,73.449-63.031,130.961-131.719,130.961
		c-68.687,0-125.718-57.574-131.719-131.021C158.129,233.722,203.522,246.462,251.25,246.462z M145.875,144.891
		c0,21.824,11.795,39.516,26.344,39.516s26.344-17.692,26.344-39.516c0-21.824-11.795-39.516-26.344-39.516
		S145.875,123.066,145.875,144.891z M303.938,144.891c0,21.824,11.794,39.516,26.344,39.516s26.344-17.692,26.344-39.516
		c0-21.824-11.794-39.516-26.344-39.516S303.938,123.066,303.938,144.891z"/>
</g>
<text transform="matrix(1 0 0 1 119.5 500.5)" font-family="'MyriadPro-Bold'" font-size="70">SIGN UP!</text>
</svg>
